<svg width="136" height="41" viewBox="0 0 136 41" fill="none" xmlns="http://www.w3.org/2000/svg">
<path d="M9.95605 28.7871C10.5941 28.7871 11.1637 28.6618 11.665 28.4111C12.1663 28.1605 12.5651 27.8073 12.8613 27.3516C13.1689 26.8958 13.3341 26.366 13.3569 25.7622H17.6123C17.5895 27.0155 17.2363 28.1377 16.5527 29.1289C15.8691 30.1201 14.9577 30.9062 13.8184 31.4873C12.6904 32.057 11.4258 32.3418 10.0244 32.3418C8.60026 32.3418 7.3584 32.1025 6.29883 31.624C5.23926 31.1455 4.35628 30.479 3.6499 29.6245C2.95492 28.77 2.43083 27.7788 2.07764 26.6509C1.73584 25.5229 1.56494 24.3153 1.56494 23.0278V22.481C1.56494 21.1935 1.73584 19.9858 2.07764 18.8579C2.43083 17.73 2.95492 16.7388 3.6499 15.8843C4.35628 15.0298 5.23926 14.3633 6.29883 13.8848C7.3584 13.4062 8.59456 13.167 10.0073 13.167C11.4998 13.167 12.8101 13.4575 13.938 14.0386C15.0773 14.6196 15.966 15.4399 16.604 16.4995C17.2534 17.5591 17.5895 18.8066 17.6123 20.2422H13.3569C13.3341 19.5814 13.186 18.9889 12.9126 18.4648C12.6392 17.9408 12.2518 17.5192 11.7505 17.2002C11.2492 16.8812 10.6396 16.7217 9.92188 16.7217C9.15853 16.7217 8.52051 16.8812 8.00781 17.2002C7.50651 17.5192 7.11344 17.9578 6.82861 18.5161C6.55518 19.063 6.36149 19.6782 6.24756 20.3618C6.14502 21.034 6.09375 21.7404 6.09375 22.481V23.0278C6.09375 23.7798 6.14502 24.4976 6.24756 25.1812C6.36149 25.8647 6.55518 26.48 6.82861 27.0269C7.11344 27.5623 7.50651 27.9896 8.00781 28.3086C8.52051 28.6276 9.16992 28.7871 9.95605 28.7871ZM44.2622 17.3027V32H39.7505V13.5088H44.0059L44.2622 17.3027ZM43.5957 22.0879H42.2114C42.2114 20.8005 42.3652 19.6156 42.6729 18.5332C42.9919 17.4508 43.459 16.5109 44.0742 15.7134C44.6895 14.9045 45.4471 14.2778 46.3472 13.8335C47.2586 13.3892 48.3125 13.167 49.5088 13.167C50.3405 13.167 51.1038 13.2923 51.7988 13.543C52.4938 13.7822 53.092 14.1639 53.5933 14.688C54.106 15.2007 54.499 15.8729 54.7725 16.7046C55.0459 17.5249 55.1826 18.5104 55.1826 19.6611V32H50.6709V20.1226C50.6709 19.2567 50.5456 18.5788 50.2949 18.0889C50.0557 17.599 49.7082 17.2572 49.2524 17.0635C48.7967 16.8584 48.2498 16.7559 47.6118 16.7559C46.9054 16.7559 46.2959 16.8983 45.7832 17.1831C45.2819 17.4565 44.866 17.8382 44.5356 18.3281C44.2166 18.818 43.9774 19.382 43.8179 20.02C43.6698 20.658 43.5957 21.3473 43.5957 22.0879ZM54.8408 21.2505L52.978 21.5923C52.9894 20.4302 53.1489 19.3421 53.4565 18.3281C53.7642 17.3027 54.2142 16.4084 54.8066 15.645C55.4105 14.8703 56.1567 14.2664 57.0454 13.8335C57.9455 13.3892 58.9823 13.167 60.1558 13.167C61.0672 13.167 61.8875 13.298 62.6167 13.5601C63.3573 13.8107 63.9896 14.2152 64.5137 14.7734C65.0378 15.3203 65.4365 16.0324 65.71 16.9097C65.9948 17.7869 66.1372 18.8579 66.1372 20.1226V32H61.5913V20.1055C61.5913 19.2054 61.466 18.5161 61.2153 18.0376C60.9761 17.5591 60.6286 17.2287 60.1729 17.0464C59.7171 16.8527 59.1816 16.7559 58.5664 16.7559C57.9398 16.7559 57.3929 16.8755 56.9258 17.1147C56.4701 17.3426 56.0827 17.6616 55.7637 18.0718C55.4561 18.4819 55.2225 18.9604 55.063 19.5073C54.9149 20.0428 54.8408 20.6239 54.8408 21.2505ZM72.9492 17.0635V39.1094H68.4204V13.5088H72.6074L72.9492 17.0635ZM84.8267 22.5664V22.9253C84.8267 24.2697 84.6672 25.5173 84.3481 26.668C84.0405 27.8073 83.5848 28.8042 82.981 29.6587C82.3771 30.5018 81.6252 31.1626 80.7251 31.6411C79.8364 32.1082 78.811 32.3418 77.6489 32.3418C76.5096 32.3418 75.5184 32.1253 74.6753 31.6924C73.8322 31.248 73.1201 30.6214 72.5391 29.8125C71.958 29.0036 71.4909 28.0636 71.1377 26.9927C70.7959 25.9103 70.5396 24.7311 70.3687 23.4551V22.3101C70.5396 20.9543 70.7959 19.7238 71.1377 18.6187C71.4909 17.5021 71.958 16.5394 72.5391 15.7305C73.1201 14.9102 73.8265 14.2778 74.6582 13.8335C75.5013 13.3892 76.4868 13.167 77.6147 13.167C78.7882 13.167 79.8193 13.3892 80.708 13.8335C81.6081 14.2778 82.3657 14.9159 82.981 15.7476C83.5962 16.5793 84.0576 17.5705 84.3652 18.7212C84.6729 19.8719 84.8267 21.1536 84.8267 22.5664ZM80.2979 22.9253V22.5664C80.2979 21.7461 80.2238 20.9884 80.0757 20.2935C79.9276 19.5871 79.6997 18.9718 79.3921 18.4478C79.0845 17.9123 78.6857 17.4964 78.1958 17.2002C77.7059 16.904 77.1134 16.7559 76.4185 16.7559C75.7235 16.7559 75.1253 16.8698 74.624 17.0977C74.1227 17.3255 73.7126 17.6502 73.3936 18.0718C73.0745 18.4933 72.8239 18.9946 72.6416 19.5757C72.4707 20.1453 72.3568 20.7777 72.2998 21.4727V24.3096C72.4023 25.1527 72.6017 25.9103 72.8979 26.5825C73.1942 27.2547 73.6271 27.7902 74.1968 28.189C74.7778 28.5877 75.5298 28.7871 76.4526 28.7871C77.1476 28.7871 77.7401 28.6333 78.23 28.3257C78.7199 28.0181 79.1187 27.5965 79.4263 27.061C79.7339 26.5142 79.9561 25.8875 80.0928 25.1812C80.2295 24.4748 80.2979 23.7228 80.2979 22.9253ZM96.5605 28.0693V19.5415C96.5605 18.9149 96.4523 18.3737 96.2358 17.918C96.0194 17.4622 95.689 17.109 95.2446 16.8584C94.8003 16.6077 94.2363 16.4824 93.5527 16.4824C92.9489 16.4824 92.4191 16.585 91.9634 16.79C91.519 16.9951 91.1772 17.2856 90.938 17.6616C90.6987 18.0262 90.5791 18.4478 90.5791 18.9263H86.0503C86.0503 18.1629 86.2326 17.4395 86.5972 16.7559C86.9618 16.0609 87.4801 15.4456 88.1523 14.9102C88.8359 14.3633 89.6506 13.936 90.5962 13.6284C91.5532 13.3208 92.6242 13.167 93.8091 13.167C95.2104 13.167 96.458 13.4062 97.5518 13.8848C98.6569 14.3519 99.5228 15.0583 100.149 16.0039C100.787 16.9495 101.106 18.1401 101.106 19.5757V27.6421C101.106 28.5649 101.163 29.3568 101.277 30.0176C101.403 30.667 101.585 31.231 101.824 31.7095V32H97.2271C97.0106 31.5329 96.8454 30.9404 96.7314 30.2227C96.6175 29.4935 96.5605 28.7757 96.5605 28.0693ZM97.1929 20.7378L97.2271 23.4209H94.373C93.6667 23.4209 93.0457 23.495 92.5103 23.6431C91.9748 23.7798 91.5361 23.9849 91.1943 24.2583C90.8525 24.5203 90.5962 24.8394 90.4253 25.2153C90.2544 25.5799 90.1689 25.9958 90.1689 26.4629C90.1689 26.9186 90.2715 27.3288 90.4766 27.6934C90.693 28.0579 91.0007 28.3485 91.3994 28.5649C91.8096 28.77 92.2881 28.8726 92.835 28.8726C93.6325 28.8726 94.3275 28.7131 94.9199 28.394C95.5124 28.0636 95.9738 27.6649 96.3042 27.1978C96.6346 26.7306 96.8112 26.2863 96.834 25.8647L98.1328 27.813C97.9733 28.2801 97.734 28.7757 97.415 29.2998C97.096 29.8239 96.6859 30.3138 96.1846 30.7695C95.6833 31.2253 95.0794 31.6012 94.373 31.8975C93.6667 32.1937 92.8464 32.3418 91.9121 32.3418C90.7158 32.3418 89.6449 32.1025 88.6992 31.624C87.7536 31.1455 87.0073 30.4904 86.4604 29.6587C85.9136 28.827 85.6401 27.8813 85.6401 26.8218C85.6401 25.842 85.8224 24.9761 86.187 24.2241C86.5516 23.4722 87.0928 22.8398 87.8105 22.3271C88.5283 21.8031 89.417 21.41 90.4766 21.1479C91.5475 20.8745 92.7723 20.7378 94.1509 20.7378H97.1929ZM113.592 26.9414C113.592 26.554 113.49 26.2065 113.285 25.8989C113.08 25.5913 112.692 25.3122 112.123 25.0615C111.564 24.7995 110.744 24.5545 109.662 24.3267C108.705 24.1216 107.822 23.8652 107.013 23.5576C106.204 23.25 105.509 22.8797 104.928 22.4468C104.347 22.0024 103.891 21.484 103.561 20.8916C103.242 20.2878 103.082 19.5928 103.082 18.8066C103.082 18.0433 103.247 17.3255 103.578 16.6533C103.908 15.9697 104.387 15.3716 105.013 14.8589C105.64 14.3348 106.403 13.9246 107.303 13.6284C108.203 13.3208 109.217 13.167 110.345 13.167C111.917 13.167 113.268 13.4233 114.396 13.936C115.535 14.4487 116.406 15.1551 117.01 16.0552C117.614 16.9438 117.916 17.9465 117.916 19.063H113.404C113.404 18.5731 113.29 18.1287 113.062 17.73C112.846 17.3312 112.51 17.0122 112.054 16.7729C111.598 16.5223 111.023 16.397 110.328 16.397C109.701 16.397 109.172 16.4995 108.739 16.7046C108.317 16.9097 107.998 17.1774 107.782 17.5078C107.565 17.8382 107.457 18.2028 107.457 18.6016C107.457 18.8978 107.514 19.1655 107.628 19.4048C107.753 19.6326 107.953 19.8434 108.226 20.0371C108.5 20.2308 108.87 20.4074 109.337 20.5669C109.815 20.7264 110.402 20.8802 111.097 21.0283C112.476 21.3018 113.678 21.6663 114.703 22.1221C115.74 22.5664 116.549 23.1589 117.13 23.8994C117.711 24.64 118.001 25.5856 118.001 26.7363C118.001 27.5566 117.825 28.3086 117.472 28.9922C117.118 29.6644 116.606 30.2511 115.934 30.7524C115.261 31.2537 114.458 31.6468 113.524 31.9316C112.59 32.2051 111.536 32.3418 110.362 32.3418C108.665 32.3418 107.229 32.0399 106.056 31.436C104.882 30.8208 103.993 30.0461 103.39 29.1118C102.786 28.1662 102.484 27.1864 102.484 26.1724H106.808C106.842 26.8901 107.035 27.4655 107.389 27.8984C107.742 28.3314 108.186 28.6447 108.722 28.8384C109.269 29.0207 109.844 29.1118 110.448 29.1118C111.131 29.1118 111.707 29.0207 112.174 28.8384C112.641 28.6447 112.994 28.3883 113.233 28.0693C113.473 27.7389 113.592 27.363 113.592 26.9414ZM129.855 26.9414C129.855 26.554 129.752 26.2065 129.547 25.8989C129.342 25.5913 128.955 25.3122 128.385 25.0615C127.827 24.7995 127.007 24.5545 125.924 24.3267C124.967 24.1216 124.084 23.8652 123.275 23.5576C122.466 23.25 121.771 22.8797 121.19 22.4468C120.609 22.0024 120.154 21.484 119.823 20.8916C119.504 20.2878 119.345 19.5928 119.345 18.8066C119.345 18.0433 119.51 17.3255 119.84 16.6533C120.171 15.9697 120.649 15.3716 121.276 14.8589C121.903 14.3348 122.666 13.9246 123.566 13.6284C124.466 13.3208 125.48 13.167 126.608 13.167C128.18 13.167 129.53 13.4233 130.658 13.936C131.798 14.4487 132.669 15.1551 133.273 16.0552C133.877 16.9438 134.179 17.9465 134.179 19.063H129.667C129.667 18.5731 129.553 18.1287 129.325 17.73C129.109 17.3312 128.773 17.0122 128.317 16.7729C127.861 16.5223 127.286 16.397 126.591 16.397C125.964 16.397 125.434 16.4995 125.001 16.7046C124.58 16.9097 124.261 17.1774 124.044 17.5078C123.828 17.8382 123.72 18.2028 123.72 18.6016C123.72 18.8978 123.777 19.1655 123.891 19.4048C124.016 19.6326 124.215 19.8434 124.489 20.0371C124.762 20.2308 125.132 20.4074 125.6 20.5669C126.078 20.7264 126.665 20.8802 127.36 21.0283C128.738 21.3018 129.94 21.6663 130.966 22.1221C132.003 22.5664 132.812 23.1589 133.393 23.8994C133.974 24.64 134.264 25.5856 134.264 26.7363C134.264 27.5566 134.088 28.3086 133.734 28.9922C133.381 29.6644 132.868 30.2511 132.196 30.7524C131.524 31.2537 130.721 31.6468 129.787 31.9316C128.852 32.2051 127.799 32.3418 126.625 32.3418C124.927 32.3418 123.492 32.0399 122.318 31.436C121.145 30.8208 120.256 30.0461 119.652 29.1118C119.049 28.1662 118.747 27.1864 118.747 26.1724H123.07C123.104 26.8901 123.298 27.4655 123.651 27.8984C124.005 28.3314 124.449 28.6447 124.984 28.8384C125.531 29.0207 126.107 29.1118 126.71 29.1118C127.394 29.1118 127.969 29.0207 128.437 28.8384C128.904 28.6447 129.257 28.3883 129.496 28.0693C129.735 27.7389 129.855 27.363 129.855 26.9414Z" fill="black"/>
<g clip-path="url(#clip0_244_3953)">
<path d="M35.2106 24.3672C35.6586 19.9805 32.4656 16.0612 28.0789 15.6132C23.6922 15.1652 19.7729 18.3581 19.3249 22.7448C18.8769 27.1316 22.0698 31.0509 26.4565 31.4989C30.8432 31.9469 34.7626 28.7539 35.2106 24.3672Z" stroke="#020617" stroke-width="3" stroke-linecap="round" stroke-linejoin="round"/>
<path d="M24.2435 19.8443L29.1232 22.0441L30.2912 27.2677L25.4115 25.0679L24.2435 19.8443Z" stroke="#020617" stroke-width="2" stroke-linecap="round" stroke-linejoin="round"/>
</g>
<defs>
<clipPath id="clip0_244_3953">
<rect width="19.162" height="19.162" fill="white" transform="translate(16.7627 32.114) rotate(-84.1687)"/>
</clipPath>
</defs>
</svg>
